<svg version="1.1" id="svg" xmlns="http://www.w3.org/2000/svg" xmlns:xlink="http://www.w3.org/1999/xlink" x="0px" y="0px" viewBox="0 0 227.4 76.4" style="enable-background:new 0 0 227.4 76.4;" xml:space="preserve">
 <style type="text/css">
  .st0{fill:none;}
	.st1{fill:#ED1C24;}
 </style>
 <g>
  <path class="st0" d="M14.2,37.1c-0.2,0.1-0.3,0.3-0.5,0.4c-1.7,1.6-2.9,3.7-3.3,5.1c0.1-0.2,0.2-0.5,0.4-0.8
		C11.7,39.8,12.8,38.3,14.2,37.1z">
  </path>
  <path class="st0" d="M159.7,28.4C159.7,28.4,159.7,28.4,159.7,28.4C159.7,28.4,159.7,28.4,159.7,28.4z">
  </path>
  <path class="st0" d="M159,28.5c0.1,0,0.2,0,0.4,0C159.3,28.5,159.2,28.5,159,28.5z">
  </path>
  <path class="st0" d="M157.6,29.1c0.4-0.3,1-0.6,1.4-0.6C158.5,28.6,158.1,28.8,157.6,29.1z">
  </path>
  <path class="st0" d="M26.9,1.6c-1,0.6-1.4,1.3-2.5,3.4C25.3,3.3,26,2.3,26.9,1.6z">
  </path>
  <path class="st0" d="M40,1.8c-0.5-0.3-1.1-0.6-1.6-0.9c-1.8-0.9-4.7-1.1-7.2-0.8C34.4-0.2,37.3,0.4,40,1.8z">
  </path>
  <path class="st0" d="M38.9,19.8c-0.2-0.4-0.5-0.6-1-0.7C38.3,19.2,38.7,19.5,38.9,19.8z">
  </path>
  <path class="st0" d="M140.4,33.6C140.4,33.6,140.4,33.6,140.4,33.6C140.4,33.6,140.4,33.6,140.4,33.6z">
  </path>
  <path class="st0" d="M136,29.1c-1.7-0.8-3.7-1.2-6-0.9c0.3,0,0.7,0,1.1,0C133,28.2,134.6,28.5,136,29.1z">
  </path>
  <path class="st0" d="M105.7,27.4c-1.1,0.3-2.2,0.8-3.3,1.6c0.5-0.3,1.4-0.8,2.2-1.2C105.1,27.6,105.4,27.5,105.7,27.4z">
  </path>
  <path class="st0" d="M36.6,20.3c0.1-0.3,0.1-0.6,0.2-0.8C36.7,19.7,36.7,19.9,36.6,20.3z">
  </path>
  <path class="st0" d="M221.2,12.8c-1.2-2.1-3-3.9-5.2-5.1C218,9,220,10.9,221.2,12.8z">
  </path>
  <path class="st0" d="M167.2,33.9c-0.8-1.7-2.1-3.1-3.7-4.1C165,30.8,166.4,32.2,167.2,33.9z">
  </path>
  <path class="st0" d="M209.1,6.8c-1,0.8-2.4,2.3-4.9,4.9C206.2,9.6,208.1,7.7,209.1,6.8z">
  </path>
  <path class="st0" d="M18.2,34.9c0.3-0.1,0.7-0.2,1.1-0.3C18.9,34.7,18.5,34.8,18.2,34.9z">
  </path>
  <path class="st0" d="M14.3,37c0.2-0.2,0.5-0.4,0.8-0.6C14.8,36.6,14.5,36.8,14.3,37z">
  </path>
  <path class="st0" d="M12,43.7c-0.5,0.3-0.9,0.5-1.3,0.6C11.1,44.3,11.5,44.1,12,43.7z">
  </path>
  <path class="st1" d="M72.7,50.6l-0.8-0.5l-1.3,1c-1.4,1.1-1.6,1.2-2.4,0.6c-0.5-0.4-1.9-3.1-2.6-5c-0.2-0.5-0.5-1.2-0.6-1.5
		c-0.2-0.3-0.4-0.9-0.6-1.5c-0.2-0.5-0.4-1.2-0.6-1.4c-0.2-0.2-0.5-0.9-0.7-1.5c-0.6-1.6-1.6-4.3-2-5c-0.2-0.3-0.5-1.1-0.7-1.6
		c-0.2-0.5-0.5-1.3-0.8-1.7c-0.3-0.4-0.5-0.9-0.5-1.1c0-0.2-0.3-1-0.7-1.9c-0.4-0.8-0.7-1.6-0.7-1.8c0-0.2-0.3-0.8-0.6-1.5
		c-0.3-0.7-0.9-1.8-1.2-2.6c-2.1-4.4-4.9-9.9-5.9-11.4c-0.4-0.6-1-1.5-1.4-2.1c-2.4-3.6-5.4-6.6-8.6-8.4c-2.7-1.4-5.6-2-8.8-1.7
		c-1.4,0.2-2.6,0.5-3.5,1c-0.3,0.1-0.5,0.3-0.7,0.4c-0.9,0.7-1.7,1.8-2.5,3.4c-0.3,0.5-0.9,1.7-1.4,2.5c-0.5,0.8-1.1,1.9-1.4,2.5
		c-0.3,0.5-1.1,2-1.7,3.3c-1.6,3-1.5,4,0.5,4.6c0.7,0.2,0.8,0.2,1.1-0.4c1.3-2.6,6.1-4.7,8.3-3.6c1,0.5,1,0.9,0.3,2.3
		c-0.3,0.5-0.5,1.1-0.5,1.3c0,0.2-0.2,0.8-0.5,1.3c-0.5,1-1.6,3.6-2.1,5.1c-0.2,0.5-0.6,1.4-0.9,2c-0.3,0.5-0.5,1.1-0.5,1.3
		s-0.3,0.9-0.6,1.6c-0.3,0.7-0.8,1.8-1,2.5c-0.9,2.6-1.3,2.8-4.9,3.6c-0.4,0.1-0.7,0.2-1.1,0.3c-1.1,0.4-2.2,0.9-3.1,1.5
		c-0.3,0.2-0.5,0.4-0.8,0.6c0,0,0,0-0.1,0c-1.4,1.2-2.5,2.8-3.4,4.8c-0.1,0.3-0.3,0.6-0.4,0.8c-0.3,1-0.2,1.6,0.3,1.7
		c0.3-0.1,0.8-0.3,1.3-0.6c0.1-0.1,0.2-0.2,0.4-0.3c0.5-0.4,3.1-1.3,4.7-1.6c2.1-0.4,2.5,0.5,1.4,2.9c-0.3,0.7-1,2.2-1.4,3.2
		c-1.1,2.7-1,2.6-4.6,2.8c-9,0.5-13.9,7.9-12,18c0.2,1,0.6,2.3,0.9,2.8c0.3,0.5,0.5,1.1,0.5,1.2c0,0.5,2.1,3.2,2.8,3.6
		c1.2,0.6,1.6-0.6,0.7-2.3C0.4,65.1,7.8,56.9,17,61c0.8,0.3,1.5,0.7,1.7,0.8c0.4,0.1,1.1,0.6,3.4,2.2c0.5,0.4,1.4,1.1,2,1.7
		c2.6,2.5,2.1,2.7,9.7-5.2c3.7-4,3.7-5.2,0-3.9L32,57.2l-1.6-0.7c-0.9-0.4-2-1.1-2.6-1.5c-0.5-0.4-1.4-1-2-1.4c-1.8-1.2-2-2.4-0.9-5
		c0.3-0.6,0.6-1.7,0.9-2.4c0.6-1.9,1.7-3.1,2.5-2.6c2.1,1.4,9.4,2.2,16.5,1.9c3.9-0.2,3.9-0.2,5.2,4.2c0.2,0.9,0.6,2.2,0.9,2.8
		c1,3.1,1.2,3.7,1.7,5.2c0.6,2.1,1.4,4.5,2,6.1c0.3,0.7,0.6,1.7,0.7,2.3c0.3,1.1,1.3,2.6,1.8,2.6c0.2,0,3.9-3.6,8.3-8.1
		C74.2,51.8,74.3,51.6,72.7,50.6z M44.6,36.3c-2.1,0.6-11.7-0.8-13-1.8c-0.3-0.3-0.1-1.5,0.4-2.3c0.2-0.3,0.5-1.1,0.8-1.9
		c0.3-0.8,0.8-2.1,1.1-2.9c0.3-0.9,0.9-2.3,1.2-3.1c0.3-0.9,0.8-1.9,1-2.3c0.2-0.4,0.5-1.1,0.6-1.6c0.1-0.3,0.1-0.6,0.2-0.8
		c0-0.1,0.1-0.3,0.1-0.3c0.1-0.2,0.6-0.2,1-0.1c0.5,0.1,0.8,0.3,1,0.7c0.2,0.3,0.5,1,0.7,1.4c0.2,0.4,0.5,1.1,0.8,1.6
		s0.6,1.3,0.9,1.9c0.7,1.4,1.5,3.2,2,4.7c0.3,0.7,0.8,2.2,1.2,3.4C45.5,35.6,45.5,36,44.6,36.3z">
  </path>
  <path class="st1" d="M226.1,59.1c-1.8,0.5-2.5,0.4-3.2-0.4l-0.7-0.8L222,36c-0.1-12.8-0.2-22.1-0.4-22.4c-0.1-0.3-0.3-0.6-0.5-0.8
		C220,10.9,218,9,216,7.7c-0.9-0.5-1.8-0.9-2.8-1.2c-2-0.6-2.6-1-4.1,0.3c-1,0.9-2.9,2.8-4.9,4.9c-2.7,2.8-5.3,5.5-5.7,5.8
		c-2,1.8,0.1,3.7,2.4,2.1c2-1.4,4.3-1.1,5,0.5c0.4,1,0.3,39.1-0.1,39.9c-0.1,0.3-0.6,0.8-1,1.2c-0.9,0.9-0.9,0.9,0.6,2.2
		c1.8,1.5,5,4.4,6.7,6c2.1,2.1,2.1,2.1,5.1-0.5c2.6-2.2,3.9-3.2,6.6-5.2c3.9-2.9,3.8-2.8,3.7-3.7C227.2,59.2,226.8,58.9,226.1,59.1z
		">
  </path>
  <path class="st1" d="M197.1,58.2c-3.4,2.1-4.2-0.1-4.2-12.1c0-9.7-0.1-10.4-1.5-12.5c-1.9-2.9-4.5-4.2-7.9-4.2l-2.3,0l-2.5,2.1
		c-1.4,1.2-2.9,2.5-3.4,2.9c-0.5,0.4-1.3,1.1-1.7,1.4c-0.4,0.4-0.9,0.7-1,0.7c-0.7,0-0.8,1.6-0.2,2.5c0.7,1.1,0.7,1.1,2,0.4
		c1.8-0.9,2.9-0.7,3.6,0.7c0.7,1.3,0.7,15.8,0.1,17.2c-1.6,3.3-6.2,4.5-8.6,2.1c-1.3-1.2-1.3-1.8-1.3-13l0-10.2l-0.7-1.8
		c-0.1-0.2-0.2-0.5-0.3-0.7c-0.8-1.6-2.2-3.1-3.7-4.1c-0.3-0.2-0.5-0.3-0.8-0.4c-1.2-0.6-2.2-0.9-3-0.9c0,0,0,0,0,0
		c-0.1,0-0.2,0-0.3,0c-0.1,0-0.2,0-0.4,0c0,0,0,0,0,0c-0.4,0.1-1,0.4-1.4,0.6c-1.6,1.2-4.6,3.4-5,3.7c-1.5,1.2-4.1,3.1-4.7,3.5
		c-0.7,0.5-0.9,1.5-0.4,2.4c0.3,0.6,1.7,1.1,2.2,0.7c0.6-0.5,2.1-0.7,2.9-0.4c1.4,0.5,1.5,0.8,1.5,11.1v9.4l-0.9,1
		c-1,1.1-1,1.8-0.1,2.4c0.6,0.4,2.5,1.6,6.8,4.6c1.1,0.8,2.3,1.6,2.6,1.8c0.3,0.2,0.8,0.6,1.1,0.9c0.6,0.6,1.8,0.6,2.6,0
		c1.9-1.3,8.2-5.5,8.9-5.9c0.5-0.3,1.1-0.7,1.3-0.9c1-0.9,2.2-0.6,3.6,0.9c1.6,1.6,3.8,3.5,5.2,4.6c0.6,0.4,1.3,1,1.7,1.3
		c0.4,0.3,0.9,0.6,1.2,0.6c0.7,0,11.3-10.7,11.3-11.4C199.3,57.7,198.5,57.3,197.1,58.2z">
  </path>
  <path class="st1" d="M144.5,58.1c-0.9,0.7-2.1,0.7-2.5,0.1c-0.2-0.3-0.3-4.3-0.3-11l0-10.6l-0.8-1.9c-0.2-0.4-0.3-0.7-0.5-1.1
		c0,0,0,0,0,0c-1.1-2-2.5-3.5-4.3-4.4c-1.4-0.6-3-1-4.9-0.9c-0.4,0-0.7,0-1.1,0c-1.5,0.2-3,0.5-4.7,1.2c-1.8,0.7-4.3,2.5-6,4.2
		c-1.3,1.3-2,1.3-3.1-0.3c-1.4-2.1-4.6-4.7-6.8-5.8c-1.1-0.5-2.4-0.6-3.8-0.3c-0.3,0.1-0.7,0.2-1,0.4c-0.8,0.4-1.7,0.8-2.2,1.2
		c-0.1,0-0.1,0.1-0.2,0.1c-0.4,0.3-1.1,0.8-1.6,1.2c-0.5,0.3-1.8,1.3-2.9,2.2c-2.5,2-3.1,2-4,0.2c-1.3-2.5-3.7-4.2-6.7-4.8
		c-2.7-0.5-3.3-0.4-6.1,1.8c-0.8,0.6-2.2,1.7-3.1,2.5c-1,0.8-2.2,1.8-2.9,2.2c-2.3,1.8-1.5,3.1,1.7,2.9c3.4-0.3,3.7,0.4,3.7,7.9
		c0,10.3-0.4,12.4-2.4,13.6c-1.5,0.9-1.5,1,2.7,4.8c1.2,1.1,2.5,2.2,2.7,2.5c4,4,4.5,4.1,6.8,1.9c0.8-0.8,2.7-2.6,4.2-3.9
		c4.8-4.4,4.6-4.3,4.6-5.1c0-1-0.3-1.2-1.3-0.8c-0.9,0.4-2,0-2.4-0.9c-0.2-0.4-0.3-3.4-0.3-9.2v-8.6l0.7-0.9
		c1.8-2.4,5.4-2.3,6.4,0.2c0.8,2,1,5.5,0.7,12.7c-0.3,7.2-0.4,7.6-1.9,8.8l-0.8,0.7l1.2,1.2c1.1,1.1,2.2,2.1,4.7,4.1
		c0.4,0.3,0.9,0.8,1.2,1c3.5,3.2,3.6,3.2,6.9,0.1c0.3-0.3,1.6-1.5,3-2.6c6-5.2,6.7-6.5,3.5-6.6c-2.5-0.1-2.6-0.8-2.5-10.9l0.1-7.4
		l0.7-1.1c1.2-1.9,3-2.4,5-1.6c2.6,1.1,2.7,1.5,2.5,11.9c-0.1,9.7-0.3,10.6-1.5,11.3c-1.3,0.8-1.2,1.5,0.5,2.7
		c1.9,1.5,2.9,2.3,3.8,3c0.4,0.3,1,0.8,1.3,1c0.3,0.2,1.3,1,2.3,1.8c2.2,1.8,1.6,2.2,8.2-4.3c4.9-4.9,5.1-5,4.9-5.8
		C145.6,57.7,145.3,57.5,144.5,58.1z">
  </path>
  <path class="st1" d="M15,36.4c0.9-0.6,2-1.2,3.1-1.5C17,35.3,16,35.8,15,36.4z">
  </path>
  <path class="st1" d="M14.2,37.1C14.3,37,14.3,37,14.2,37.1C14.3,37,14.3,37,14.2,37.1z">
  </path>
  <path class="st1" d="M12.4,43.4c-0.1,0.1-0.2,0.2-0.4,0.3C12.2,43.6,12.3,43.5,12.4,43.4z">
  </path>
  <path class="st1" d="M140.4,33.6c-1.1-2.1-2.5-3.6-4.3-4.4C137.8,30,139.3,31.5,140.4,33.6z">
  </path>
  <path class="st1" d="M221.2,12.8c0.2,0.3,0.3,0.6,0.5,0.8C221.5,13.4,221.4,13.1,221.2,12.8z">
  </path>
  <path class="st1" d="M102.3,29.1c0.1-0.1,0.1-0.1,0.2-0.1C102.4,29,102.3,29,102.3,29.1z">
  </path>
  <path class="st1" d="M125.4,29.4c1.6-0.6,3.2-1,4.7-1.2C128.5,28.3,127.5,28.6,125.4,29.4z">
  </path>
  <path class="st1" d="M213.2,6.5c1,0.3,1.9,0.7,2.8,1.2c-2.4-1.5-4.8-2.3-6.2-1.5c-0.1,0.1-0.3,0.3-0.7,0.6
		C210.6,5.5,211.2,5.9,213.2,6.5z">
  </path>
  <path class="st1" d="M140.4,33.6c0.2,0.3,0.3,0.7,0.5,1.1C140.7,34.3,140.5,33.9,140.4,33.6z">
  </path>
  <path class="st1" d="M159.4,28.4c0.1,0,0.2,0,0.3,0C159.6,28.4,159.5,28.4,159.4,28.4z">
  </path>
  <path class="st1" d="M10.5,42.6c-0.5,1.1-0.5,1.2-0.2,1.6c0.1,0.1,0.3,0.2,0.5,0.1C10.2,44.2,10.2,43.6,10.5,42.6z">
  </path>
  <path class="st1" d="M159,28.5C159,28.5,159,28.5,159,28.5C159,28.5,159,28.5,159,28.5C159,28.5,159,28.5,159,28.5z">
  </path>
  <path class="st1" d="M109.5,27.6c-1.4-0.7-2.3-0.8-3.8-0.3C107.1,27,108.4,27.1,109.5,27.6z">
  </path>
  <path class="st1" d="M37.8,19.1c0,0,0.1,0,0.1,0c-0.4-0.1-0.9-0.1-1,0.1c0,0-0.1,0.2-0.1,0.3C36.9,19,37.2,19,37.8,19.1z">
  </path>
  <path class="st1" d="M167.2,33.9c0.1,0.2,0.2,0.4,0.3,0.7C167.4,34.3,167.3,34.1,167.2,33.9z">
  </path>
  <path class="st1" d="M48.6,10.3c-2.7-4-5.5-6.8-8.6-8.4C43.2,3.7,46.2,6.6,48.6,10.3z">
  </path>
  <path class="st1" d="M163.5,29.8c-1.2-0.8-2.6-1.3-3.7-1.3c0.8,0,1.7,0.3,3,0.9C163,29.5,163.2,29.6,163.5,29.8z">
  </path>
  <path class="st1" d="M31.2,0.1C31.2,0.1,31.1,0.1,31.2,0.1c-1.9,0.2-3.2,0.6-4.3,1.4c0.2-0.1,0.4-0.3,0.7-0.4
		C28.6,0.6,29.8,0.3,31.2,0.1z">
  </path>
 </g>
</svg>