<svg version="1.1" id="Layer_1" xmlns:x="ns_extend;" xmlns:i="ns_ai;" xmlns:graph="ns_graphs;" xmlns="http://www.w3.org/2000/svg" xmlns:xlink="http://www.w3.org/1999/xlink" x="0px" y="0px" viewBox="0 0 527 496" style="enable-background:new 0 0 527 496;" xml:space="preserve">
 <style type="text/css">
  .st0{fill:none;}
	.st1{fill:#FFFFFF;}
 </style>
 <metadata>
  <sfw xmlns="ns_sfw;">
   <slices>
   </slices>
   <sliceSourceBounds bottomLeftOrigin="true" height="496" width="527" x="0" y="0">
   </sliceSourceBounds>
  </sfw>
 </metadata>
 <g>
  <path class="st0" d="M224.8,434.2c0,0-2.3-1.1-6.4-1.1H210V456h5.8c0,0,5.7,0.1,9.5-2.1c3.7-2.2,6.4-5.2,6.4-9.7
		S228.8,435.8,224.8,434.2z">
  </path>
  <path class="st0" d="M9.7,470.5c-2.2,0-4,1-6.1,3.4v10.7c1.6,0.6,2.9,0.8,4.3,0.8c4.6,0,7.8-3.3,7.8-7.8
		C15.7,473.5,13.2,470.5,9.7,470.5z">
  </path>
  <path class="st0" d="M516.9,380.8c0-1.9-1.8-2.2-3.3-2.2h-3.2v4.6h3.1C515.4,383.2,516.9,382.9,516.9,380.8z">
  </path>
  <path class="st0" d="M513.1,373c-6.2,0-11.3,5-11.3,11.2c0,6.2,5,11.2,11.3,11.2c6.2,0,11.3-5,11.3-11.2
		C524.4,378,519.4,373,513.1,373z M516.7,392l-3.9-6.7h-2.3v6.7h-2.6v-15.6h5.8c3.9,0,5.9,1.3,5.9,4.6c0,2.8-1.8,4-4.2,4.2l4.3,6.8
		H516.7z">
  </path>
  <path class="st1" d="M382.4,426.4l-32,61.9h7.3l9.9-19.3h22.7l-3.1-6.2h-16.4l10.5-20.3l20.6,41c0.8,1.7,1.8,2.9,3,3.7
		c1.2,0.8,2.8,1.1,4.7,1.1h7.6l-31.3-61.9H382.4z">
  </path>
  <path class="st1" d="M302.3,472.6l-24.9-44.8h-12.4v60.5h6.4v-46.9l26.3,46.9h3.3l25.6-46.6v40.1c0,1.4,0.3,2.5,0.8,3.4
		c0.5,0.8,1.2,1.5,2,2c0.8,0.5,1.6,0.8,2.5,0.9c0.9,0.1,1.7,0.2,2.4,0.2h4.8v-60.5h-12.2L302.3,472.6z">
  </path>
  <path class="st1" d="M481.3,427.9c-0.4,0.1-0.9,0.2-1.3,0.5c-0.4,0.3-0.8,0.6-1,1c-0.3,0.5-0.4,1-0.4,1.7v39l-41.6-42.3h-8v60.5
		h7.3v-45.6l42.2,44.1c1.7,1.6,4.1,1.5,6.4,1.5h0.9v-60.5h-3.3C482.1,427.8,481.7,427.8,481.3,427.9z">
  </path>
  <path class="st1" d="M519.6,381c0-3.3-2.1-4.6-5.9-4.6h-5.8V392h2.6v-6.7h2.3l3.9,6.7h3l-4.3-6.8
		C517.8,384.9,519.6,383.8,519.6,381z M510.4,383.2v-4.6h3.2c1.5,0,3.3,0.3,3.3,2.2c0,2.1-1.5,2.4-3.3,2.4H510.4z">
  </path>
  <path class="st1" d="M245,443.9c0-5.6-2.6-10-8.8-13.1c-6.2-3.1-15.7-3-15.7-3h-22.9v60.5h12.5v-27.7h6.4l18.4,22.8
		c0,0,2.5,3.3,4.9,4.1c2.3,0.8,4.4,0.8,4.4,0.8l9.6,0l-23.9-28.9C241.7,456.1,245,449.5,245,443.9z M225.3,454
		c-3.7,2.2-9.5,2.1-9.5,2.1H210v-22.9h8.3c4.1,0,6.4,1.1,6.4,1.1c4,1.6,6.9,5.6,6.9,10S229,451.8,225.3,454z">
  </path>
  <path class="st1" d="M513.1,370.4c-7.6,0-13.9,6.2-13.9,13.8c0,7.7,6.2,13.8,13.9,13.8c7.6,0,13.9-6.2,13.9-13.8
		C527,376.6,520.8,370.4,513.1,370.4z M513.1,395.5c-6.2,0-11.3-5-11.3-11.2c0-6.2,5-11.2,11.3-11.2c6.2,0,11.3,5,11.3,11.2
		C524.4,390.4,519.4,395.5,513.1,395.5z">
  </path>
  <path class="st1" d="M94.6,454.7H63.7v-26.9H51.2v60.5h12.5v-28.2h30.9l0,21.7c0,1.4,0.3,2.5,0.8,3.4c0.5,0.8,1.2,1.5,2,2
		c0.8,0.5,1.6,0.8,2.5,0.9c0.9,0.2,1.7,0.2,2.4,0.2h4.8v-60.5H94.6V454.7z">
  </path>
  <polygon class="st1" points="28.5,481.6 22.2,469.3 20.2,469.3 27.6,483.5 21.5,496 23.4,496 36.5,469.3 34.6,469.3 	">
  </polygon>
  <path class="st1" d="M270.3,159.1c0-26.1-2.5-28.2-12.5-28.2h-15v55.9l15,0C267.8,186.8,270.3,185.2,270.3,159.1z">
  </path>
  <path class="st1" d="M0,397.6h485.7V0H0V397.6z M317.7,115.1h27.4v142.5c0,7.8,6.3,14.1,14.1,14.1c7.8,0,14.1-6.3,14.1-14.1l0-29
		h27.5v53h-83.2V115.1z M215.4,115.1h54.9c10.6,0,27.4,8.7,27.4,27.1v28.4c0,8.3-7.3,23-18.1,23c10.8,0,18.1,9.3,18.1,16.4v49.9
		c0,8.5-6.9,21.8-27.4,21.8h-54.9V115.1z M167.2,257.4l0-142.3h27.5v137.5c0,16.6-10.8,31.5-41.6,31.5c-30.8,0-41.6-19.5-41.6-31.5
		v-24h27.4l0,29c0,7.8,6.3,14.1,14.1,14.1C160.9,271.7,167.2,265.2,167.2,257.4z M109.3,194.7c0-8.8,7.1-15.8,15.9-15.8
		c8.8,0,15.9,7.1,15.9,15.8c0,8.7-7.1,15.8-15.9,15.8C116.4,210.5,109.3,203.4,109.3,194.7z M150.5,115.1l-25.4,57.6l-25.4-57.6
		H150.5z">
  </path>
  <path class="st1" d="M9.9,468.9c-2.8,0-4.5,1.1-6.3,2.9v-11.7H1.8V486c2.4,0.9,4.1,1.3,6.2,1.3c5.9,0,9.8-3.8,9.8-9.8
		C17.7,472.5,14.5,468.9,9.9,468.9z M7.9,485.4c-1.4,0-2.7-0.2-4.3-0.8v-10.7c2.1-2.4,3.9-3.4,6.1-3.4c3.5,0,6,3,6,7.2
		C15.7,482.2,12.5,485.4,7.9,485.4z">
  </path>
  <path class="st1" d="M150.9,426.4l-32.1,61.9h7.3l23.7-45.8l10.2,20.4h-16.5l-3.2,6.2h22.8l7.2,14.4c0.8,1.7,1.8,2.9,3,3.7
		c1.2,0.8,2.8,1.1,4.7,1.1h7.7l-31.3-61.9H150.9z">
  </path>
  <path class="st1" d="M259.5,200.9h-16.6V268l16.6,0c10.8,0,10.8-7.3,10.8-33.4C270.3,208.5,270.3,200.9,259.5,200.9z">
  </path>
 </g>
</svg>