<svg   viewBox="0 0 877 208" fill="none" xmlns="http://www.w3.org/2000/svg">
<path d="M141.097 154.91C126.903 154.91 123.67 148.606 123.67 138.634V108.868C123.67 98.4559 120.298 94.6438 112.568 94.6438C105.122 94.6438 102.591 100.362 102.591 108.428V154.902H93.315C82.4931 154.902 76.732 151.237 76.732 138.626V108.121C76.732 98.589 73.2168 94.6275 66.1905 94.6275C58.7446 94.6275 55.7924 98.5869 55.7924 108.549V154.91H46.5182C34.5723 154.91 29.0938 148.899 29.0938 138.634V110.334C29.0938 86.8723 42.0224 71.9169 66.6143 71.9169C78.6933 71.9169 87.8344 79.6966 90.3628 86.2868C94.0193 80.1306 103.433 71.9128 114.533 71.9128C137.02 71.9128 150.361 85.8344 150.361 111.063V154.912H141.086L141.097 154.91Z" fill="#00AEEF"/>
<path d="M196.331 157.113C181.437 157.113 163.307 149.781 163.307 131.45C163.307 113.561 175.676 104.471 203.779 104.471H207.575V101.097C207.575 94.4986 202.662 92.8874 192.116 92.8874C177.642 92.8874 172.3 96.4046 166.822 101.691H166.12V91.8637C166.12 81.8914 176.098 71.9211 198.16 71.9211C219.521 71.9211 233.432 83.2119 233.432 106.967V119.43C233.432 148.758 224.439 157.115 196.331 157.115V157.113ZM208.136 121.775H202.797C192.679 121.775 188.605 124.414 188.605 129.843C188.605 134.973 191.698 137.608 199.144 137.608C203.923 137.608 208.136 135.119 208.136 127.781V121.775Z" fill="#00AEEF"/>
<path d="M359.074 154.91C344.881 154.91 341.648 148.606 341.648 138.634V108.869C341.648 98.4561 338.274 94.644 330.543 94.644C323.095 94.644 320.567 100.362 320.567 108.428V154.902H311.291C300.471 154.902 294.708 151.237 294.708 138.626V108.121C294.708 98.5891 291.193 94.6276 284.166 94.6276C276.72 94.6276 273.768 98.5871 273.768 108.549V154.91H264.494C252.548 154.91 247.067 148.899 247.067 138.634V110.334C247.067 86.8725 259.996 71.9171 284.588 71.9171C296.667 71.9171 305.808 79.6968 308.336 86.287C311.989 80.1308 321.404 71.9171 332.505 71.9171C354.992 71.9171 368.332 85.8387 368.332 111.067V154.912H359.06L359.074 154.91Z" fill="#00AEEF"/>
<path d="M414.31 157.113C399.418 157.113 381.287 149.781 381.287 131.45C381.287 113.561 393.653 104.471 421.76 104.471H425.556V101.097C425.556 94.4986 420.642 92.8874 410.097 92.8874C395.622 92.8874 390.283 96.4046 384.802 101.691H384.102V91.8637C384.102 81.8914 394.079 71.9211 416.14 71.9211C437.501 71.9211 451.415 83.2119 451.415 106.967V119.43C451.415 148.758 442.423 157.115 414.312 157.115L414.31 157.113ZM426.119 121.775H420.781C410.664 121.775 406.587 124.414 406.587 129.843C406.587 134.973 409.681 137.608 417.127 137.608C421.905 137.608 426.123 135.119 426.123 127.781V121.77L426.119 121.775Z" fill="#00AEEF"/>
<path d="M501.308 124.557H489.784C491.332 132.619 497.652 136.431 508.758 136.431C521.124 136.431 528.85 134.384 533.209 131.299H534.192V137.75C534.192 148.017 526.183 157.254 504.117 157.254C477.418 157.254 463.376 138.482 463.376 116.198C463.376 91.7102 479.251 71.7717 503.147 71.7717C523.378 71.7717 539.119 83.6459 539.119 104.176C539.119 120.309 527.45 124.559 501.316 124.559L501.308 124.557ZM503.144 92.5946C493.727 92.5946 489.792 98.8982 489.092 106.672H499.486C512.138 106.672 514.388 104.624 514.388 101.099C514.388 96.9922 510.873 92.5946 503.147 92.5946" fill="#82C341"/>
<path d="M582.821 157.113C567.921 157.113 549.792 149.781 549.792 131.45C549.792 113.561 562.16 104.471 590.263 104.471H594.06V101.097C594.06 94.4986 589.147 92.8874 578.605 92.8874C564.125 92.8874 558.786 96.4046 553.303 101.691H552.605V91.8637C552.605 81.8914 562.581 71.9211 584.645 71.9211C606.006 71.9211 619.92 83.2119 619.92 106.967V119.43C619.92 148.758 610.924 157.115 582.823 157.115L582.821 157.113ZM594.628 121.775H589.286C579.166 121.775 575.092 124.414 575.092 129.843C575.092 134.973 578.182 137.608 585.632 137.608C590.41 137.608 594.628 135.119 594.628 127.781V121.775Z" fill="#82C341"/>
<path d="M681.059 95.0861C678.065 93.9019 674.858 93.3525 671.641 93.4728C665.174 93.4728 660.115 96.8447 660.115 106.67V154.914H652.81C641.286 154.914 634.256 149.339 634.256 135.85V100.804C634.256 84.5303 644.797 71.6242 662.367 71.6242C675.717 71.6242 681.898 77.3423 681.898 84.8231V95.0861H681.059Z" fill="#82C341"/>
<path d="M699.186 60.0407C703.078 56.7145 707.981 54.8024 713.098 54.6154H715.909V74.2693H738.543V84.0963C738.543 90.9875 731.513 96.2654 725.473 96.2654H715.917V125.437C715.801 126.583 715.939 127.739 716.318 128.826C716.698 129.913 717.311 130.904 718.114 131.728C718.917 132.553 719.892 133.191 720.968 133.599C722.045 134.007 723.197 134.174 724.345 134.089C728.451 134.366 732.568 133.767 736.424 132.332H737.127V143.183C737.127 149.927 731.224 156.081 717.311 156.081C704.1 156.081 689.91 149.482 689.91 127.337V77.3423C690.026 73.9399 690.923 70.6097 692.532 67.6095C694.141 64.6093 696.418 62.0196 699.188 60.0407" fill="#82C341"/>
<path d="M816.251 154.92C802.197 154.92 799.81 148.029 799.81 138.057V111.067C799.81 99.6312 795.875 94.4986 788.29 94.4986C777.887 94.4986 775.359 100.217 775.359 111.653V154.92H766.365C753.578 154.92 748.656 149.345 748.656 138.057V46.4018H757.226C768.335 46.4018 774.655 51.9766 774.655 62.3849V83.2079C778.59 76.7569 785.053 71.9171 797.279 71.9171C812.88 71.9171 826.512 84.5284 826.512 106.375V154.92H816.251Z" fill="#82C341"/>
<path d="M825.598 64.7473C825.598 61.4327 826.581 58.1925 828.422 55.4365C830.264 52.6804 832.881 50.5324 835.943 49.2639C839.006 47.9955 842.375 47.6636 845.626 48.3102C848.877 48.9569 851.863 50.553 854.207 52.8968C856.551 55.2406 858.147 58.2268 858.794 61.4778C859.44 64.7287 859.109 68.0984 857.84 71.1607C856.572 74.223 854.424 76.8404 851.668 78.682C848.912 80.5235 845.671 81.5064 842.357 81.5064C840.156 81.5069 837.976 81.0738 835.943 80.2318C833.909 79.3897 832.061 78.1553 830.505 76.5989C828.949 75.0426 827.714 73.1949 826.872 71.1614C826.03 69.1278 825.597 66.9483 825.598 64.7473ZM828.822 64.7473C828.822 67.4242 829.616 70.041 831.103 72.2667C832.59 74.4925 834.704 76.2272 837.177 77.2516C839.65 78.276 842.372 78.5441 844.997 78.0218C847.623 77.4996 850.034 76.2105 851.927 74.3177C853.82 72.4249 855.109 70.0132 855.631 67.3878C856.154 64.7623 855.885 62.041 854.861 59.5678C853.837 57.0947 852.102 54.9809 849.876 53.4937C847.65 52.0065 845.034 51.2127 842.357 51.2127C838.768 51.216 835.327 52.643 832.79 55.1805C830.252 57.718 828.825 61.1587 828.822 64.7473ZM842.824 68.6371C842.197 67.2982 841.82 67.1733 840.483 67.0484V72.8136H838.52C838.139 72.8583 837.753 72.821 837.387 72.7043C837.022 72.5876 836.685 72.3942 836.401 72.137C836.116 71.8797 835.889 71.5647 835.736 71.2128C835.583 70.861 835.507 70.4805 835.513 70.0969V57.4037C837.173 56.9348 838.886 56.6816 840.61 56.6503H842.453C846.001 56.6503 848.634 58.6136 848.634 61.5822C848.635 62.4508 848.393 63.3024 847.936 64.0406C847.478 64.7787 846.823 65.3739 846.044 65.7587C846.757 66.5433 847.349 67.4309 847.798 68.3915C848.967 70.6066 849.303 71.1082 850.181 71.6077C849.801 72.0205 849.334 72.3435 848.813 72.5531C848.293 72.7628 847.732 72.8538 847.172 72.8197C844.332 72.8197 843.79 70.6476 842.828 68.6433L842.824 68.6371ZM840.928 60.1286C840.695 60.1247 840.463 60.1398 840.234 60.1737V63.4145C840.743 63.4596 841.298 63.4596 841.947 63.4596C842.178 63.4789 842.409 63.4501 842.628 63.375C842.846 63.2999 843.047 63.1803 843.217 63.0235C843.387 62.8668 843.522 62.6765 843.614 62.4647C843.707 62.2529 843.754 62.0241 843.753 61.7931C843.753 60.7285 843.198 60.1266 841.947 60.1266L840.928 60.1286Z" fill="#82C341"/>
</svg>
